<svg width="463" height="322" viewBox="0 0 463 322" fill="none" xmlns="http://www.w3.org/2000/svg">
<g clip-path="url(#clip0_5_93)">
<path d="M378.166 201.941H79.9664C77.9308 201.939 75.9792 201.136 74.5399 199.708C73.1005 198.28 72.2908 196.345 72.2885 194.326V11.9508C72.2902 10.4717 72.8833 9.05362 73.9378 8.00769C74.9923 6.96176 76.422 6.37341 77.9134 6.3717H380.121C381.638 6.37342 383.093 6.97193 384.166 8.03594C385.238 9.09996 385.842 10.5426 385.844 12.0473V194.326C385.841 196.345 385.032 198.28 383.592 199.708C382.153 201.136 380.201 201.939 378.166 201.941Z" fill="#F2F2F2"/>
<path d="M367.288 191.157H89.3737C85.2997 191.157 81.9854 188.078 81.9854 184.294V25.48C81.9854 22.6739 84.4414 20.3908 87.4603 20.3908H369.11C372.179 20.3908 374.676 22.7115 374.676 25.5639V184.294C374.676 188.078 371.361 191.157 367.288 191.157Z" fill="white"/>
<path d="M385.737 11.5152H72.1808V7.63821C72.1837 5.61251 72.9967 3.67069 74.4413 2.23874C75.8859 0.806797 77.8442 0.00167357 79.8866 0H378.031C380.073 0.00166381 382.032 0.806784 383.476 2.23873C384.921 3.67068 385.734 5.61251 385.737 7.63821V11.5152Z" fill="#CCCCCC"/>
<path d="M86.1849 7.74602C87.2858 7.74602 88.1781 6.86092 88.1781 5.7691C88.1781 4.67727 87.2858 3.79218 86.1849 3.79218C85.0841 3.79218 84.1918 4.67727 84.1918 5.7691C84.1918 6.86092 85.0841 7.74602 86.1849 7.74602Z" fill="white"/>
<path d="M93.7506 7.74602C94.8514 7.74602 95.7438 6.86092 95.7438 5.7691C95.7438 4.67727 94.8514 3.79218 93.7506 3.79218C92.6498 3.79218 91.7574 4.67727 91.7574 5.7691C91.7574 6.86092 92.6498 7.74602 93.7506 7.74602Z" fill="white"/>
<path d="M101.316 7.74602C102.417 7.74602 103.309 6.86092 103.309 5.7691C103.309 4.67727 102.417 3.79218 101.316 3.79218C100.215 3.79218 99.3231 4.67727 99.3231 5.7691C99.3231 6.86092 100.215 7.74602 101.316 7.74602Z" fill="white"/>
<path d="M336.698 164.521H121.327C119.168 164.518 117.098 163.667 115.571 162.153C114.045 160.638 113.186 158.585 113.183 156.444V53.4521C113.185 51.8506 113.827 50.3152 114.969 49.1828C116.111 48.0503 117.659 47.4133 119.274 47.4115H338.653C340.294 47.4133 341.867 48.0605 343.027 49.211C344.187 50.3616 344.839 51.9215 344.841 53.5486V156.444C344.838 158.585 343.98 160.638 342.453 162.153C340.926 163.667 338.857 164.518 336.698 164.521ZM119.274 48.3345C117.906 48.3361 116.594 48.8757 115.627 49.8351C114.66 50.7946 114.116 52.0953 114.114 53.4521V156.444C114.116 158.341 114.877 160.159 116.229 161.5C117.581 162.841 119.414 163.596 121.327 163.598H336.698C338.61 163.596 340.443 162.841 341.795 161.5C343.147 160.159 343.908 158.341 343.91 156.444V53.5486C343.909 52.1662 343.354 50.8409 342.369 49.8634C341.383 48.8859 340.047 48.3361 338.653 48.3345H119.274Z" fill="#CCCCCC"/>
<path d="M128.772 156.444H329.252C331.227 156.444 333.121 155.666 334.517 154.281C335.913 152.896 336.698 151.018 336.698 149.06V62.9624C336.698 61.0039 335.913 59.1256 334.517 57.7408C333.121 56.3559 331.227 55.5779 329.252 55.5779H128.772C126.797 55.5779 124.904 56.3559 123.507 57.7408C122.111 59.1256 121.327 61.0039 121.327 62.9624V149.06C121.327 151.018 122.111 152.896 123.507 154.281C124.904 155.666 126.797 156.444 128.772 156.444Z" fill="#F2F2F2"/>
<path d="M151.535 80.6269C153.848 80.6269 155.723 78.7672 155.723 76.4731C155.723 74.1791 153.848 72.3194 151.535 72.3194C149.222 72.3194 147.347 74.1791 147.347 76.4731C147.347 78.7672 149.222 80.6269 151.535 80.6269Z" fill="#CCCCCC"/>
<path d="M151.535 96.3189C153.848 96.3189 155.723 94.4592 155.723 92.1651C155.723 89.8711 153.848 88.0114 151.535 88.0114C149.222 88.0114 147.347 89.8711 147.347 92.1651C147.347 94.4592 149.222 96.3189 151.535 96.3189Z" fill="#CCCCCC"/>
<path d="M151.535 112.011C153.848 112.011 155.723 110.151 155.723 107.857C155.723 105.563 153.848 103.703 151.535 103.703C149.222 103.703 147.347 105.563 147.347 107.857C147.347 110.151 149.222 112.011 151.535 112.011Z" fill="#CCCCCC"/>
<path d="M151.535 127.703C153.848 127.703 155.723 125.843 155.723 123.549C155.723 121.255 153.848 119.395 151.535 119.395C149.222 119.395 147.347 121.255 147.347 123.549C147.347 125.843 149.222 127.703 151.535 127.703Z" fill="#CCCCCC"/>
<path d="M310.212 76.9347H172.475C172.352 76.9347 172.233 76.886 172.146 76.7995C172.059 76.7129 172.01 76.5955 172.01 76.4731C172.01 76.3507 172.059 76.2333 172.146 76.1468C172.233 76.0602 172.352 76.0116 172.475 76.0116H310.212C310.335 76.0116 310.453 76.0602 310.541 76.1468C310.628 76.2333 310.677 76.3507 310.677 76.4731C310.677 76.5955 310.628 76.7129 310.541 76.7995C310.453 76.886 310.335 76.9347 310.212 76.9347Z" fill="#CCCCCC"/>
<path d="M310.212 92.6266H172.475C172.352 92.6266 172.233 92.578 172.146 92.4915C172.059 92.4049 172.01 92.2875 172.01 92.1651C172.01 92.0427 172.059 91.9253 172.146 91.8388C172.233 91.7522 172.352 91.7036 172.475 91.7036H310.212C310.335 91.7036 310.453 91.7522 310.541 91.8388C310.628 91.9253 310.677 92.0427 310.677 92.1651C310.677 92.2875 310.628 92.4049 310.541 92.4915C310.453 92.578 310.335 92.6266 310.212 92.6266Z" fill="#CCCCCC"/>
<path d="M310.212 108.319H172.475C172.352 108.319 172.233 108.27 172.146 108.183C172.059 108.097 172.01 107.98 172.01 107.857C172.01 107.735 172.059 107.617 172.146 107.531C172.233 107.444 172.352 107.396 172.475 107.396H310.212C310.335 107.396 310.453 107.444 310.541 107.531C310.628 107.617 310.677 107.735 310.677 107.857C310.677 107.98 310.628 108.097 310.541 108.183C310.453 108.27 310.335 108.319 310.212 108.319Z" fill="#CCCCCC"/>
<path d="M310.212 124.011H172.475C172.352 124.011 172.233 123.962 172.146 123.875C172.059 123.789 172.01 123.671 172.01 123.549C172.01 123.427 172.059 123.309 172.146 123.223C172.233 123.136 172.352 123.088 172.475 123.088H310.212C310.335 123.088 310.453 123.136 310.541 123.223C310.628 123.309 310.677 123.427 310.677 123.549C310.677 123.671 310.628 123.789 310.541 123.875C310.453 123.962 310.335 124.011 310.212 124.011Z" fill="#CCCCCC"/>
<path d="M198.533 139.703H185.039C184.422 139.702 183.831 139.459 183.394 139.026C182.958 138.593 182.713 138.007 182.712 137.395V124.934C182.713 124.322 182.958 123.735 183.394 123.303C183.831 122.87 184.422 122.627 185.039 122.626H198.533C199.15 122.627 199.741 122.87 200.178 123.303C200.614 123.735 200.859 124.322 200.86 124.934V137.395C200.859 138.007 200.614 138.593 200.178 139.026C199.741 139.459 199.15 139.702 198.533 139.703Z" fill="#4FD1C5"/>
<path d="M228.779 139.703H215.285C214.668 139.702 214.077 139.459 213.641 139.026C213.204 138.593 212.959 138.007 212.958 137.395V109.242C212.959 108.63 213.204 108.043 213.641 107.611C214.077 107.178 214.668 106.935 215.285 106.934H228.779C229.396 106.935 229.988 107.178 230.424 107.611C230.86 108.043 231.105 108.63 231.106 109.242V137.395C231.105 138.007 230.86 138.593 230.424 139.026C229.988 139.459 229.396 139.702 228.779 139.703Z" fill="#4FD1C5"/>
<path d="M259.491 139.703H245.997C245.38 139.702 244.788 139.459 244.352 139.026C243.916 138.593 243.671 138.007 243.67 137.395V93.5497C243.671 92.9379 243.916 92.3514 244.352 91.9187C244.788 91.4861 245.38 91.2428 245.997 91.2421H259.491C260.108 91.2428 260.699 91.4861 261.135 91.9187C261.572 92.3514 261.817 92.9379 261.818 93.5497V137.395C261.817 138.007 261.572 138.593 261.135 139.026C260.699 139.459 260.108 139.702 259.491 139.703Z" fill="#4FD1C5"/>
<path d="M291.133 139.703H277.639C277.022 139.702 276.431 139.459 275.994 139.026C275.558 138.593 275.313 138.007 275.312 137.395V78.3192C275.313 77.7074 275.558 77.1209 275.994 76.6883C276.431 76.2557 277.022 76.0123 277.639 76.0116H291.133C291.75 76.0123 292.341 76.2557 292.778 76.6883C293.214 77.1209 293.459 77.7074 293.46 78.3192V137.395C293.459 138.007 293.214 138.593 292.778 139.026C292.341 139.459 291.75 139.702 291.133 139.703Z" fill="#4FD1C5"/>
<path d="M310.212 139.703H172.475C172.352 139.703 172.233 139.654 172.146 139.567C172.059 139.481 172.01 139.363 172.01 139.241C172.01 139.119 172.059 139.001 172.146 138.915C172.233 138.828 172.352 138.78 172.475 138.78H310.212C310.335 138.78 310.453 138.828 310.541 138.915C310.628 139.001 310.677 139.119 310.677 139.241C310.677 139.363 310.628 139.481 310.541 139.567C310.453 139.654 310.335 139.703 310.212 139.703Z" fill="#3F3D56"/>
<path d="M370.726 225.8C371.103 225.234 371.601 224.756 372.184 224.402C372.767 224.047 373.422 223.823 374.101 223.747C374.781 223.67 375.469 223.742 376.118 223.958C376.767 224.173 377.36 224.528 377.855 224.995L392.632 217.431L391.713 225.953L377.822 231.829C376.975 232.603 375.871 233.042 374.719 233.062C373.567 233.083 372.448 232.684 371.574 231.94C370.699 231.197 370.13 230.162 369.974 229.03C369.817 227.898 370.085 226.749 370.726 225.8Z" fill="#FFB8B8"/>
<path d="M383.44 228.978C383.105 228.717 382.858 228.361 382.731 227.957L381.556 224.191C381.43 223.783 381.433 223.347 381.565 222.941C381.697 222.534 381.952 222.178 382.295 221.92L394.271 212.948L407.242 189.081C407.785 188.387 408.461 187.806 409.231 187.371C410.001 186.936 410.849 186.656 411.728 186.546C412.607 186.436 413.499 186.499 414.353 186.732C415.208 186.964 416.008 187.361 416.707 187.9C417.407 188.439 417.993 189.109 418.431 189.872C418.87 190.636 419.153 191.477 419.263 192.349C419.374 193.221 419.31 194.106 419.076 194.953C418.842 195.801 418.441 196.594 417.898 197.288L410.519 212.736C408.28 217.424 404.4 221.147 399.601 223.211L385.565 229.249C385.295 229.365 385.004 229.423 384.71 229.42C384.415 229.417 384.125 229.352 383.858 229.23C383.709 229.163 383.569 229.078 383.44 228.978Z" fill="#3F3D56"/>
<path d="M418.224 179.12C424.536 179.12 429.653 174.045 429.653 167.785C429.653 161.524 424.536 156.449 418.224 156.449C411.912 156.449 406.795 161.524 406.795 167.785C406.795 174.045 411.912 179.12 418.224 179.12Z" fill="#FFB8B8"/>
<path d="M413.588 316.487L407.883 316.487L405.17 294.662L413.59 294.663L413.588 316.487Z" fill="#FFB8B8"/>
<path d="M403.808 314.87H414.81V321.741H396.881C396.881 320.839 397.06 319.945 397.408 319.112C397.756 318.278 398.267 317.521 398.91 316.883C399.553 316.245 400.317 315.738 401.157 315.393C401.998 315.048 402.899 314.87 403.808 314.87Z" fill="#2F2E41"/>
<path d="M432.201 316.488L426.497 316.488L423.783 294.663L432.203 294.664L432.201 316.488Z" fill="#FFB8B8"/>
<path d="M422.421 314.871H433.423V321.742H415.494C415.494 320.839 415.673 319.946 416.021 319.112C416.369 318.279 416.88 317.521 417.523 316.883C418.166 316.245 418.93 315.739 419.77 315.394C420.611 315.049 421.512 314.871 422.421 314.871Z" fill="#2F2E41"/>
<path d="M432.618 310.95L425.933 310.95C425.472 310.949 425.025 310.799 424.66 310.521C424.294 310.243 424.031 309.854 423.911 309.413L414.288 274.014C414.273 273.958 414.238 273.911 414.19 273.88C414.141 273.849 414.083 273.837 414.026 273.846C413.969 273.855 413.918 273.885 413.882 273.93C413.846 273.974 413.828 274.03 413.831 274.088L415.775 307.66C415.792 307.957 415.745 308.254 415.636 308.531C415.528 308.808 415.361 309.059 415.146 309.267C414.931 309.474 414.674 309.634 414.392 309.734C414.11 309.834 413.809 309.874 413.51 309.849L405.997 309.227C405.515 309.186 405.063 308.982 404.715 308.649C404.368 308.316 404.148 307.874 404.091 307.398L397.245 236.902L399.894 238.478L424.709 234.299L434.694 308.599C434.733 308.892 434.709 309.191 434.623 309.474C434.536 309.757 434.39 310.019 434.193 310.241C433.997 310.464 433.755 310.643 433.483 310.765C433.211 310.887 432.916 310.95 432.618 310.95H432.618Z" fill="#2F2E41"/>
<path d="M405.545 244.342C402.807 244.321 400.125 243.572 397.778 242.174C397.416 241.962 397.127 241.646 396.95 241.268C396.773 240.89 396.715 240.467 396.784 240.056C397.656 234.755 402.22 207.561 406.373 192.736C408.064 186.698 411.804 183.446 417.488 183.07C425.803 182.529 433.193 188.981 433.962 197.47C435.32 212.446 429.806 233.723 427.372 242.176C427.277 242.502 427.104 242.801 426.866 243.045C426.628 243.29 426.333 243.472 426.008 243.577C425.682 243.683 425.336 243.707 424.998 243.648C424.661 243.589 424.344 243.449 424.074 243.24L419.113 239.413C418.807 239.181 418.43 239.063 418.046 239.079C417.662 239.095 417.296 239.244 417.011 239.5C412.83 243.199 408.857 244.343 405.545 244.342Z" fill="#3F3D56"/>
<path opacity="0.2" d="M421.952 204.798L426.14 222.336L420.089 237.105L424.278 222.798L421.952 204.798Z" fill="black"/>
<path d="M424.746 177.107C425.762 177.125 426.772 176.944 427.718 176.573C428.134 176.414 428.566 176.284 428.981 176.124C432.649 174.719 435.065 170.845 435.152 166.947C435.238 163.048 433.203 159.264 430.18 156.77C427.158 154.276 423.243 152.995 419.322 152.699C415.099 152.38 410.344 153.442 407.984 156.93C407.356 157.858 406.917 158.985 407.289 160.106C407.4 160.444 407.599 160.748 407.866 160.986C408.92 161.916 409.971 161.216 411.045 161.155C412.521 161.07 413.848 162.255 414.324 163.644C414.801 165.033 414.591 166.562 414.206 167.978C413.913 168.83 413.728 169.716 413.656 170.613C413.625 171.064 413.71 171.514 413.904 171.922C414.097 172.331 414.393 172.683 414.762 172.946C415.685 173.5 416.897 173.18 417.82 172.627C418.743 172.075 419.541 171.307 420.538 170.901C421.536 170.494 422.875 170.585 423.456 171.486C423.64 171.814 423.765 172.171 423.825 172.542C424.345 174.894 424.225 174.755 424.746 177.107Z" fill="#2F2E41"/>
<path d="M407.031 300.655L335.466 275.935C334.238 275.509 333.23 274.618 332.664 273.456C332.098 272.294 332.019 270.957 332.446 269.738L351.043 216.774C351.357 215.882 352.016 215.15 352.874 214.738C353.732 214.327 354.719 214.27 355.62 214.58L429.604 240.135C430.52 240.452 431.271 241.117 431.693 241.983C432.114 242.848 432.173 243.845 431.855 244.753L413.278 297.659C412.849 298.877 411.95 299.877 410.779 300.438C409.608 301 408.26 301.078 407.031 300.655Z" fill="#E6E6E6"/>
<path d="M341.573 272.891L404.152 294.507C405.343 294.918 406.651 294.844 407.787 294.299C408.923 293.754 409.795 292.784 410.21 291.602L425.227 248.834C425.642 247.652 425.566 246.355 425.017 245.228C424.468 244.101 423.49 243.237 422.298 242.825L359.719 221.209C358.528 220.798 357.22 220.873 356.084 221.417C354.948 221.962 354.076 222.932 353.661 224.114L338.644 266.882C338.439 267.468 338.352 268.087 338.387 268.706C338.423 269.325 338.582 269.93 338.854 270.488C339.126 271.046 339.506 271.546 339.972 271.958C340.439 272.37 340.983 272.687 341.573 272.891Z" fill="white"/>
<path d="M357.287 242.842L354.188 241.772C354.02 241.714 353.882 241.592 353.805 241.433C353.727 241.274 353.716 241.091 353.775 240.924L354.854 237.85C354.913 237.684 355.036 237.547 355.196 237.47C355.356 237.393 355.541 237.383 355.709 237.44L358.808 238.511C358.976 238.569 359.114 238.691 359.191 238.85C359.269 239.009 359.279 239.192 359.221 239.359L358.142 242.433C358.083 242.599 357.96 242.736 357.8 242.813C357.64 242.89 357.455 242.9 357.287 242.842Z" fill="#4FD1C5"/>
<path d="M354.491 250.807L351.391 249.736C351.223 249.678 351.086 249.556 351.008 249.397C350.931 249.238 350.92 249.055 350.978 248.888L352.058 245.814C352.116 245.648 352.239 245.511 352.4 245.434C352.56 245.357 352.744 245.347 352.912 245.405L356.012 246.475C356.18 246.533 356.317 246.655 356.395 246.814C356.472 246.973 356.483 247.156 356.425 247.323L355.345 250.397C355.287 250.563 355.164 250.7 355.003 250.777C354.843 250.854 354.659 250.864 354.491 250.807Z" fill="#3F3D56"/>
<path d="M351.694 258.771L348.595 257.7C348.427 257.642 348.289 257.52 348.212 257.361C348.134 257.202 348.124 257.019 348.182 256.853L349.261 253.779C349.32 253.612 349.443 253.475 349.603 253.398C349.763 253.322 349.948 253.311 350.116 253.369L353.215 254.439C353.383 254.498 353.521 254.62 353.598 254.779C353.676 254.937 353.687 255.12 353.628 255.287L352.549 258.361C352.49 258.528 352.367 258.664 352.207 258.741C352.047 258.818 351.862 258.829 351.694 258.771Z" fill="#CCCCCC"/>
<path d="M378.112 248.312L363.18 243.155C363.096 243.126 363.02 243.081 362.953 243.023C362.887 242.965 362.834 242.895 362.795 242.816C362.757 242.737 362.734 242.651 362.729 242.564C362.724 242.477 362.736 242.389 362.765 242.306C362.794 242.224 362.839 242.147 362.898 242.082C362.957 242.017 363.028 241.963 363.108 241.925C363.187 241.887 363.274 241.865 363.362 241.86C363.45 241.856 363.538 241.868 363.621 241.897L378.554 247.055C378.637 247.084 378.714 247.128 378.78 247.186C378.846 247.244 378.9 247.315 378.939 247.394C378.977 247.473 379 247.558 379.005 247.646C379.01 247.733 378.998 247.821 378.969 247.903C378.94 247.986 378.895 248.062 378.836 248.128C378.777 248.193 378.706 248.246 378.626 248.284C378.547 248.322 378.46 248.344 378.372 248.349C378.284 248.354 378.196 248.341 378.112 248.312Z" fill="#CCCCCC"/>
<path d="M375.316 256.277L360.383 251.119C360.215 251.061 360.077 250.939 360 250.78C359.922 250.621 359.912 250.438 359.97 250.271C360.029 250.104 360.152 249.967 360.312 249.891C360.472 249.814 360.657 249.803 360.825 249.861L375.758 255.019C375.841 255.048 375.918 255.092 375.984 255.151C376.05 255.209 376.104 255.279 376.142 255.358C376.181 255.437 376.203 255.522 376.208 255.61C376.213 255.697 376.201 255.785 376.172 255.867C376.143 255.95 376.098 256.026 376.039 256.092C375.98 256.157 375.909 256.21 375.83 256.248C375.75 256.286 375.664 256.308 375.576 256.313C375.488 256.318 375.399 256.306 375.316 256.277Z" fill="#CCCCCC"/>
<path d="M372.52 264.241L357.587 259.083C357.419 259.025 357.281 258.903 357.203 258.744C357.126 258.585 357.115 258.402 357.174 258.235C357.232 258.068 357.355 257.932 357.516 257.855C357.676 257.778 357.86 257.767 358.029 257.825L372.961 262.983C373.129 263.041 373.267 263.163 373.345 263.322C373.422 263.481 373.433 263.664 373.374 263.831C373.316 263.998 373.193 264.135 373.032 264.212C372.872 264.288 372.688 264.299 372.52 264.241Z" fill="#CCCCCC"/>
<path d="M412.258 268.556C412.367 268.297 412.469 268.034 412.563 267.766C413.791 264.27 413.568 260.434 411.944 257.102C410.319 253.77 407.427 251.214 403.903 249.996L398.995 263.975L412.258 268.556Z" fill="#4FD1C5"/>
<path d="M397.567 264.825L402.476 250.847C399.882 249.951 397.08 249.827 394.417 250.491C391.753 251.156 389.343 252.579 387.485 254.585C385.627 256.591 384.402 259.093 383.96 261.781C383.518 264.47 383.879 267.228 384.999 269.716C386.119 272.203 387.948 274.312 390.262 275.78C392.575 277.249 395.271 278.014 398.017 277.981C400.764 277.948 403.441 277.119 405.717 275.595C407.994 274.071 409.772 271.92 410.831 269.406L397.567 264.825Z" fill="#3F3D56"/>
<path d="M415.139 244.773C415.083 244.097 415.178 243.417 415.416 242.781C415.654 242.145 416.03 241.568 416.517 241.092C417.004 240.615 417.591 240.251 418.235 240.024C418.88 239.796 419.567 239.712 420.248 239.776L427.169 224.78L431.748 232.048L424.474 245.175C424.288 246.302 423.693 247.323 422.799 248.044C421.906 248.765 420.777 249.136 419.626 249.086C418.476 249.037 417.383 248.57 416.556 247.775C415.729 246.981 415.225 245.912 415.139 244.773Z" fill="#FFB8B8"/>
<path d="M427.121 239.492C426.694 239.492 426.278 239.363 425.928 239.123L422.66 236.879C422.307 236.635 422.037 236.29 421.889 235.889C421.74 235.489 421.719 235.053 421.828 234.64L425.669 220.249L421.026 193.53C421.02 192.651 421.19 191.779 421.524 190.965C421.859 190.15 422.352 189.409 422.975 188.784C423.599 188.159 424.34 187.662 425.158 187.321C425.975 186.981 426.852 186.803 427.738 186.799C428.625 186.795 429.504 186.964 430.324 187.297C431.145 187.629 431.891 188.119 432.521 188.739C433.15 189.358 433.651 190.094 433.993 190.905C434.335 191.716 434.513 192.586 434.517 193.465L438.322 210.137C439.477 215.197 438.74 220.501 436.248 225.062L428.961 238.404C428.821 238.661 428.628 238.885 428.394 239.063C428.161 239.24 427.892 239.367 427.606 239.435C427.447 239.473 427.284 239.492 427.121 239.492Z" fill="#3F3D56"/>
<path d="M462.535 322H374.123C373.999 322 373.881 321.951 373.794 321.865C373.706 321.778 373.657 321.661 373.657 321.538C373.657 321.416 373.706 321.299 373.794 321.212C373.881 321.126 373.999 321.077 374.123 321.077H462.535C462.658 321.077 462.776 321.126 462.864 321.212C462.951 321.299 463 321.416 463 321.538C463 321.661 462.951 321.778 462.864 321.865C462.776 321.951 462.658 322 462.535 322Z" fill="#CCCCCC"/>
<path d="M228.262 316.258L233.967 316.257L236.68 294.433H228.261L228.262 316.258Z" fill="#A0616A"/>
<path d="M226.807 314.41L238.041 314.41H238.042C238.982 314.41 239.913 314.594 240.782 314.95C241.651 315.307 242.44 315.83 243.105 316.49C243.769 317.149 244.297 317.932 244.657 318.794C245.017 319.655 245.202 320.579 245.202 321.511V321.742L226.807 321.743L226.807 314.41Z" fill="#2F2E41"/>
<path d="M205.461 316.258L211.166 316.257L213.879 294.433H205.46L205.461 316.258Z" fill="#A0616A"/>
<path d="M204.006 314.41L215.24 314.41H215.241C216.181 314.41 217.112 314.594 217.981 314.95C218.85 315.307 219.639 315.83 220.304 316.49C220.968 317.149 221.496 317.932 221.856 318.794C222.215 319.655 222.401 320.579 222.401 321.511V321.742L204.006 321.743L204.006 314.41Z" fill="#2F2E41"/>
<path d="M229.401 165.162C235.713 165.162 240.829 160.087 240.829 153.826C240.829 147.566 235.713 142.491 229.401 142.491C223.089 142.491 217.972 147.566 217.972 153.826C217.972 160.087 223.089 165.162 229.401 165.162Z" fill="#A0616A"/>
<path d="M237.086 311.547H226.5C226.222 311.547 225.948 311.493 225.692 311.387C225.437 311.281 225.205 311.125 225.01 310.93C224.815 310.734 224.662 310.502 224.558 310.248C224.454 309.993 224.402 309.72 224.406 309.445L225.021 259.586C225.023 259.408 224.957 259.237 224.836 259.107C224.715 258.977 224.548 258.898 224.37 258.886C224.191 258.874 224.016 258.931 223.878 259.044C223.74 259.156 223.652 259.317 223.63 259.493L217.469 309.721C217.407 310.225 217.161 310.688 216.778 311.025C216.395 311.361 215.902 311.547 215.39 311.547H204.702C204.413 311.547 204.128 311.488 203.863 311.373C203.599 311.259 203.361 311.091 203.165 310.881C202.969 310.67 202.819 310.422 202.724 310.152C202.629 309.881 202.592 309.594 202.614 309.309L209.672 219.737L209.864 219.717L243.66 216.096L239.178 309.569C239.153 310.102 238.921 310.606 238.532 310.974C238.142 311.343 237.624 311.548 237.086 311.547Z" fill="#2F2E41"/>
<path d="M210.084 225.236C209.541 225.235 209.019 225.024 208.63 224.649C208.241 224.273 208.014 223.763 207.997 223.224C207.813 217.561 207.496 197.964 211.172 183.577C212.175 179.646 214.426 176.141 217.593 173.577C220.76 171.014 224.674 169.53 228.758 169.344C232.777 169.126 236.763 170.169 240.15 172.325C243.538 174.481 246.155 177.64 247.631 181.354C253.808 196.909 259.644 216.082 252.368 219.09C242.831 223.031 217.69 224.787 210.212 225.232C210.169 225.235 210.126 225.236 210.084 225.236Z" fill="#3F3D56"/>
<path d="M253.764 142.369C253.944 142.552 254.138 142.721 254.344 142.874L253.144 165.731L248.154 168.266L251.026 176.235L260.299 172.601C261.049 172.307 261.682 171.78 262.103 171.099C262.525 170.419 262.713 169.621 262.638 168.825L260.209 142.897C261.004 142.308 261.599 141.494 261.916 140.562C262.233 139.629 262.256 138.623 261.983 137.678C261.709 136.732 261.152 135.891 260.385 135.268C259.618 134.644 258.678 134.266 257.689 134.185C256.701 134.104 255.711 134.324 254.851 134.815C253.991 135.305 253.303 136.044 252.877 136.933C252.451 137.821 252.307 138.817 252.466 139.788C252.624 140.759 253.077 141.66 253.764 142.369Z" fill="#A0616A"/>
<path d="M253.239 166.582L256.75 176.477C256.85 176.759 256.887 177.058 256.86 177.355C256.832 177.653 256.741 177.94 256.591 178.199C256.441 178.458 256.237 178.682 255.992 178.856C255.748 179.029 255.468 179.149 255.173 179.205L244.821 181.194C243.366 181.692 241.771 181.599 240.385 180.933C239 180.267 237.937 179.083 237.43 177.641C236.923 176.199 237.014 174.616 237.682 173.24C238.35 171.864 239.54 170.807 240.993 170.301L250.287 165.435C250.553 165.296 250.846 165.215 251.147 165.198C251.447 165.181 251.748 165.229 252.028 165.338C252.308 165.447 252.561 165.615 252.77 165.829C252.979 166.044 253.139 166.301 253.239 166.582V166.582Z" fill="#3F3D56"/>
<path d="M204.26 142.369C204.08 142.552 203.886 142.721 203.68 142.874L204.88 165.731L209.87 168.266L206.999 176.235L197.725 172.601C196.976 172.307 196.343 171.78 195.921 171.099C195.499 170.419 195.312 169.621 195.386 168.825L197.816 142.897C197.021 142.308 196.425 141.494 196.108 140.562C195.791 139.629 195.768 138.623 196.041 137.678C196.315 136.732 196.872 135.891 197.639 135.268C198.406 134.644 199.346 134.266 200.335 134.185C201.324 134.104 202.314 134.324 203.173 134.815C204.033 135.305 204.722 136.044 205.148 136.933C205.574 137.821 205.717 138.817 205.558 139.788C205.4 140.759 204.947 141.66 204.26 142.369H204.26Z" fill="#A0616A"/>
<path d="M205.996 165.338C206.277 165.229 206.577 165.181 206.877 165.198C207.178 165.215 207.471 165.295 207.737 165.435L217.032 170.301C218.484 170.807 219.675 171.864 220.343 173.24C221.01 174.616 221.101 176.199 220.594 177.641C220.087 179.083 219.025 180.266 217.639 180.932C216.254 181.599 214.658 181.692 213.203 181.194L202.852 179.205C202.556 179.149 202.277 179.029 202.032 178.856C201.787 178.682 201.583 178.458 201.433 178.199C201.284 177.94 201.192 177.653 201.165 177.355C201.137 177.058 201.175 176.759 201.275 176.477L204.785 166.582C204.885 166.301 205.045 166.044 205.254 165.829C205.463 165.614 205.716 165.447 205.996 165.338Z" fill="#3F3D56"/>
<path d="M233.839 155.758C233.779 154.312 234.145 152.88 234.892 151.637C235.639 150.394 236.735 149.394 238.046 148.758C241.52 146.979 243.703 143.185 242.746 139.72C241.522 135.286 235.437 132.409 230.506 133.935C229.171 134.405 227.884 134.998 226.662 135.707L223.44 137.42C222.064 138.103 220.737 138.88 219.469 139.745C217.57 141.133 216.081 143.002 215.159 145.156C214.236 147.31 213.914 149.67 214.225 151.989C214.859 156.498 217.836 160.633 221.911 163.464C223.469 164.619 225.269 165.412 227.178 165.785C229.131 166.105 231.306 165.742 232.734 164.537C234.966 162.654 234.735 159.502 234.013 156.868C233.918 156.505 233.86 156.133 233.839 155.758Z" fill="#2F2E41"/>
<path d="M272.681 322H184.269C184.146 322 184.028 321.951 183.94 321.865C183.853 321.778 183.804 321.661 183.804 321.538C183.804 321.416 183.853 321.299 183.94 321.212C184.028 321.126 184.146 321.077 184.269 321.077H272.681C272.805 321.077 272.923 321.126 273.01 321.212C273.098 321.299 273.147 321.416 273.147 321.538C273.147 321.661 273.098 321.778 273.01 321.865C272.923 321.951 272.805 322 272.681 322Z" fill="#CCCCCC"/>
<path d="M128.388 237.804L55.4355 267.489C54.1827 267.997 52.7777 267.991 51.5289 267.473C50.2801 266.955 49.2895 265.967 48.7743 264.726L26.4424 210.735C26.067 209.824 26.0711 208.803 26.4537 207.896C26.8363 206.989 27.5661 206.269 28.4831 205.894L103.902 175.207C104.836 174.828 105.883 174.832 106.813 175.218C107.744 175.604 108.483 176.341 108.866 177.266L131.174 231.198C131.686 232.44 131.681 233.834 131.158 235.072C130.636 236.311 129.64 237.293 128.388 237.804Z" fill="#E6E6E6"/>
<path d="M58.0781 260.94L121.87 234.983C123.085 234.489 124.052 233.536 124.558 232.335C125.065 231.133 125.07 229.781 124.571 228.577L106.538 184.979C106.292 184.383 105.929 183.84 105.471 183.383C105.013 182.925 104.468 182.562 103.868 182.313C103.268 182.064 102.625 181.935 101.975 181.933C101.325 181.93 100.681 182.055 100.079 182.3L36.2871 208.257C35.6856 208.502 35.1386 208.861 34.6773 209.316C34.216 209.77 33.8495 210.31 33.5987 210.905C33.3479 211.5 33.2176 212.138 33.2154 212.783C33.2132 213.428 33.3391 214.067 33.5858 214.663L51.6187 258.261C51.8655 258.857 52.2283 259.4 52.6864 259.857C53.1446 260.315 53.6891 260.679 54.2889 260.927C54.8888 261.176 55.5321 261.305 56.1822 261.307C56.8324 261.31 57.4766 261.185 58.0781 260.94Z" fill="white"/>
<path d="M106.186 196.869L105.248 197.25L105.312 197.406L106.25 197.024L106.186 196.869Z" fill="#E6E6E6"/>
<path d="M103.418 198.176L101.523 198.947L101.459 198.792L103.353 198.021L103.418 198.176ZM99.6281 199.718L97.7334 200.489L97.6693 200.334L99.564 199.563L99.6281 199.718ZM95.8387 201.26L93.944 202.031L93.8799 201.876L95.7746 201.105L95.8387 201.26ZM92.0493 202.802L90.1547 203.573L90.0905 203.418L91.9852 202.647L92.0493 202.802ZM88.2599 204.344L86.3653 205.115L86.3011 204.96L88.1958 204.189L88.2599 204.344ZM84.4705 205.886L82.5759 206.657L82.5117 206.502L84.4064 205.731L84.4705 205.886ZM80.6811 207.428L78.7865 208.199L78.7224 208.044L80.617 207.273L80.6811 207.428ZM76.8918 208.97L74.9971 209.741L74.933 209.586L76.8276 208.815L76.8918 208.97ZM73.1024 210.512L71.2077 211.283L71.1436 211.128L73.0382 210.357L73.1024 210.512ZM69.313 212.054L67.4183 212.825L67.3542 212.669L69.2488 211.899L69.313 212.054ZM65.5236 213.595L63.6289 214.366L63.5648 214.211L65.4594 213.44L65.5236 213.595ZM61.7342 215.137L59.8395 215.908L59.7754 215.753L61.6701 214.982L61.7342 215.137ZM57.9448 216.679L56.0501 217.45L55.986 217.295L57.8807 216.524L57.9448 216.679ZM54.1554 218.221L52.2607 218.992L52.1966 218.837L54.0913 218.066L54.1554 218.221ZM50.366 219.763L48.4713 220.534L48.4072 220.379L50.3019 219.608L50.366 219.763ZM46.5766 221.305L44.6819 222.076L44.6178 221.921L46.5125 221.15L46.5766 221.305Z" fill="#E6E6E6"/>
<path d="M42.7231 222.692L41.7852 223.073L41.8493 223.229L42.7872 222.847L42.7231 222.692Z" fill="#E6E6E6"/>
<path d="M81.3562 223.817L80.4183 224.199L80.4824 224.354L81.4203 223.972L81.3562 223.817Z" fill="#E6E6E6"/>
<path d="M78.6158 225.113L76.7493 225.873L76.6852 225.718L78.5517 224.958L78.6158 225.113ZM74.8827 226.632L73.0162 227.392L72.9521 227.237L74.8186 226.477L74.8827 226.632ZM71.1496 228.151L69.2831 228.911L69.219 228.756L71.0855 227.996L71.1496 228.151ZM67.4165 229.67L65.55 230.43L65.4858 230.275L67.3524 229.515L67.4165 229.67ZM63.6834 231.189L61.8168 231.949L61.7527 231.794L63.6193 231.034L63.6834 231.189ZM59.9503 232.708L58.0837 233.468L58.0196 233.313L59.8862 232.553L59.9503 232.708ZM56.2172 234.227L54.3506 234.987L54.2865 234.832L56.1531 234.072L56.2172 234.227ZM52.4841 235.746L50.6175 236.506L50.5534 236.351L52.42 235.591L52.4841 235.746Z" fill="#E6E6E6"/>
<path d="M48.6869 237.11L47.749 237.492L47.8131 237.647L48.751 237.265L48.6869 237.11Z" fill="#E6E6E6"/>
<path d="M65.8892 238.08L64.9513 238.462L65.0155 238.617L65.9533 238.235L65.8892 238.08Z" fill="#E6E6E6"/>
<path d="M63.0951 239.398L61.1747 240.18L61.1105 240.025L63.0309 239.243L63.0951 239.398ZM59.2542 240.961L57.3338 241.743L57.2697 241.588L59.1901 240.806L59.2542 240.961ZM55.4134 242.524L53.493 243.305L53.4289 243.15L55.3493 242.369L55.4134 242.524Z" fill="#E6E6E6"/>
<path d="M51.5085 243.932L50.5706 244.313L50.6347 244.468L51.5726 244.087L51.5085 243.932Z" fill="#E6E6E6"/>
<path d="M70.7043 249.722L69.7664 250.103L69.8306 250.258L70.7684 249.877L70.7043 249.722Z" fill="#E6E6E6"/>
<path d="M67.9102 251.04L65.9898 251.821L65.9256 251.666L67.846 250.885L67.9102 251.04ZM64.0693 252.603L62.1489 253.384L62.0848 253.229L64.0052 252.448L64.0693 252.603ZM60.2285 254.165L58.3081 254.947L58.244 254.792L60.1644 254.01L60.2285 254.165Z" fill="#E6E6E6"/>
<path d="M56.3236 255.573L55.3857 255.955L55.4498 256.11L56.3877 255.728L56.3236 255.573Z" fill="#E6E6E6"/>
<path d="M60.7868 254.077L114.846 232.08C116.154 231.546 117.196 230.519 117.742 229.225C118.287 227.93 118.293 226.474 117.758 225.175L106.835 198.768L106.73 198.815L93.4635 230.276L83.6244 226.196C83.4428 226.12 83.246 226.087 83.0494 226.099C82.8528 226.111 82.6617 226.168 82.4911 226.266C82.2349 226.419 82.0366 226.651 81.9271 226.927L74.9745 243.414L67.7806 240.431C67.6254 240.367 67.4589 240.333 67.2906 240.333C67.1223 240.332 66.9556 240.364 66.7999 240.428C66.6442 240.491 66.5027 240.584 66.3833 240.702C66.2639 240.82 66.1691 240.959 66.1042 241.113C66.0582 241.225 61.6225 252.02 60.7868 254.077Z" fill="#4FD1C5"/>
<path d="M60.6203 254.326L60.4645 254.261L66.0273 241.068C66.1745 240.719 66.4551 240.443 66.8073 240.3C67.1596 240.157 67.5548 240.158 67.9062 240.303L74.958 243.228L81.871 226.832C82.0183 226.484 82.2988 226.208 82.6511 226.065C83.0033 225.921 83.3985 225.922 83.7499 226.068L93.447 230.09L106.781 198.464L106.937 198.529L93.5377 230.309L83.6848 226.222C83.5312 226.159 83.3666 226.126 83.2002 226.125C83.0338 226.125 82.8689 226.156 82.7149 226.219C82.561 226.282 82.421 226.374 82.3029 226.49C82.1849 226.607 82.0911 226.745 82.0269 226.897L75.0487 243.447L67.841 240.458C67.531 240.33 67.1823 240.329 66.8715 240.455C66.5607 240.582 66.3131 240.825 66.1831 241.132L60.6203 254.326Z" fill="#3F3D56"/>
<path d="M65.9213 239.331C66.5745 239.331 67.104 238.806 67.104 238.158C67.104 237.51 66.5745 236.985 65.9213 236.985C65.2681 236.985 64.7386 237.51 64.7386 238.158C64.7386 238.806 65.2681 239.331 65.9213 239.331Z" fill="#3F3D56"/>
<path d="M81.3882 225.068C82.0414 225.068 82.5709 224.543 82.5709 223.895C82.5709 223.247 82.0414 222.722 81.3882 222.722C80.7351 222.722 80.2056 223.247 80.2056 223.895C80.2056 224.543 80.7351 225.068 81.3882 225.068Z" fill="#3F3D56"/>
<path d="M105.472 198.078C106.125 198.078 106.655 197.553 106.655 196.905C106.655 196.257 106.125 195.732 105.472 195.732C104.819 195.732 104.289 196.257 104.289 196.905C104.289 197.553 104.819 198.078 105.472 198.078Z" fill="#3F3D56"/>
<path d="M39.2741 236.827C39.8889 236.523 40.4292 236.09 40.8568 235.557C41.2844 235.024 41.5891 234.405 41.7492 233.742C41.9094 233.08 41.9212 232.391 41.7837 231.723C41.6463 231.056 41.363 230.427 40.9539 229.88L44.4664 195.817H36.8754L34.0839 229.077C33.2029 229.82 32.6272 230.858 32.4659 231.993C32.3046 233.129 32.5689 234.283 33.2086 235.239C33.8484 236.194 34.8192 236.883 35.9371 237.176C37.055 237.469 38.2423 237.344 39.2741 236.827Z" fill="#FFB8B8"/>
<path d="M46.244 177.018C52.1754 177.018 56.9838 172.249 56.9838 166.366C56.9838 160.483 52.1754 155.714 46.244 155.714C40.3126 155.714 35.5042 160.483 35.5042 166.366C35.5042 172.249 40.3126 177.018 46.244 177.018Z" fill="#FFB8B8"/>
<path d="M48.2659 215.654C47.836 215.654 47.418 215.514 47.076 215.255C46.7341 214.997 46.4871 214.634 46.3729 214.223C45.5124 211.123 43.2738 205.88 39.7193 198.641C38.9172 197.004 38.4731 195.218 38.416 193.399C38.3589 191.58 38.6902 189.77 39.388 188.088C40.0859 186.405 41.1345 184.887 42.4653 183.635C43.796 182.382 45.3787 181.423 47.1095 180.82C48.7497 180.245 50.4894 180.003 52.2257 180.107C53.962 180.211 55.6596 180.66 57.2181 181.426C58.7766 182.192 60.1643 183.261 61.2991 184.568C62.4339 185.876 63.2928 187.396 63.8249 189.039C66.58 197.606 66.447 206.783 66.2619 210.331C66.2389 210.758 66.0753 211.166 65.7962 211.492C65.5171 211.818 65.1379 212.045 64.7166 212.137L48.6879 215.609C48.5493 215.639 48.4078 215.654 48.2659 215.654Z" fill="#FF6584"/>
<path d="M63.7879 316.805H69.1485L71.6989 296.296L63.787 296.297L63.7879 316.805Z" fill="#FFB8B8"/>
<path d="M79.4875 321.742L62.6393 321.743L62.639 315.286L72.9777 315.286C73.8325 315.286 74.679 315.453 75.4688 315.777C76.2586 316.101 76.9762 316.577 77.5807 317.177C78.1852 317.776 78.6647 318.488 78.9919 319.271C79.3191 320.054 79.4875 320.894 79.4875 321.742Z" fill="#2F2E41"/>
<path d="M10.1823 309.914L14.8802 312.476L27.0774 295.723L20.1445 291.942L10.1823 309.914Z" fill="#FFB8B8"/>
<path d="M21.5418 321.743L6.77768 313.692L9.91377 308.034L18.9736 312.974C20.4865 313.799 21.607 315.187 22.0886 316.831C22.5702 318.475 22.3735 320.242 21.5418 321.743Z" fill="#2F2E41"/>
<path d="M63.5374 305.422C63.0597 305.421 62.5984 305.249 62.2397 304.936C61.881 304.623 61.6493 304.191 61.5879 303.721L54.8836 252.48C54.854 252.254 54.7529 252.042 54.5948 251.876C54.4367 251.71 54.2297 251.597 54.0033 251.555C53.7769 251.512 53.5427 251.541 53.3342 251.639C53.1257 251.736 52.9535 251.896 52.8422 252.096L24.9014 302.375C24.6708 302.786 24.2994 303.101 23.8546 303.263C23.4098 303.424 22.9212 303.423 22.4777 303.258L16.3874 300.956C16.1424 300.864 15.9186 300.723 15.729 300.544C15.5394 300.364 15.3879 300.149 15.2834 299.911C15.1789 299.672 15.1234 299.415 15.1204 299.155C15.1173 298.895 15.1666 298.637 15.2654 298.397L34.6208 251.237C34.6698 251.117 34.703 250.992 34.7196 250.864C37.3412 230.739 44.0114 220.504 45.9932 217.847C46.1379 217.652 46.2332 217.425 46.2709 217.185C46.3087 216.946 46.2878 216.701 46.21 216.471L45.9376 215.66C45.8287 215.339 45.8064 214.994 45.8728 214.661C45.9392 214.328 46.0921 214.018 46.3162 213.762C53.4574 205.695 65.9042 210.097 66.0291 210.142L66.0914 210.165L66.1305 210.218C80.087 229.202 74.9268 290.862 73.7507 303.03C73.7068 303.487 73.5013 303.914 73.1704 304.236C72.8396 304.557 72.4048 304.752 71.943 304.786L63.6902 305.416C63.6389 305.42 63.588 305.422 63.5374 305.422Z" fill="#2F2E41"/>
<path d="M87.9962 178.74C87.9425 178.974 87.9075 179.212 87.8915 179.451L69.1076 190.199L64.5419 187.592L59.6746 193.912L67.305 199.306C67.9215 199.742 68.6638 199.968 69.4206 199.949C70.1774 199.931 70.9077 199.67 71.502 199.205L90.8715 184.049C91.7457 184.37 92.6976 184.419 93.6007 184.19C94.5038 183.962 95.3153 183.466 95.9273 182.768C96.5392 182.071 96.9226 181.205 97.0264 180.286C97.1302 179.368 96.9496 178.439 96.5085 177.625C96.0674 176.811 95.3868 176.149 94.5571 175.727C93.7275 175.306 92.7882 175.145 91.8641 175.266C90.94 175.387 90.0749 175.784 89.384 176.405C88.6931 177.025 88.209 177.84 87.9962 178.74Z" fill="#FFB8B8"/>
<path d="M68.4796 190.708L62.4087 198.512C62.236 198.734 62.017 198.917 61.7667 199.047C61.5165 199.178 61.2408 199.253 60.9584 199.269C60.6761 199.284 60.3937 199.239 60.1306 199.136C59.8674 199.033 59.6297 198.876 59.4335 198.674L52.5608 191.595C51.4205 190.712 50.6797 189.417 50.5008 187.993C50.322 186.569 50.7198 185.133 51.6069 183.999C52.494 182.866 53.7981 182.127 55.2333 181.946C56.6684 181.765 58.1175 182.155 59.2627 183.032L67.8826 187.813C68.1293 187.95 68.3434 188.138 68.5103 188.364C68.6771 188.591 68.7928 188.85 68.8495 189.125C68.9062 189.4 68.9025 189.683 68.8386 189.956C68.7748 190.23 68.6523 190.486 68.4796 190.708Z" fill="#FF6584"/>
<path d="M44.9495 204.267L35.1697 202.515C34.8914 202.465 34.6272 202.356 34.3952 202.196C34.1631 202.036 33.9685 201.828 33.8248 201.587C33.6811 201.345 33.5915 201.076 33.5622 200.797C33.5329 200.518 33.5646 200.236 33.655 199.97L36.8255 190.66C37.0905 189.249 37.9088 188 39.1009 187.187C40.2929 186.374 41.7615 186.063 43.1845 186.322C44.6075 186.581 45.8689 187.389 46.6919 188.569C47.515 189.749 47.8327 191.205 47.5752 192.617L47.2659 202.408C47.2569 202.688 47.1872 202.963 47.0614 203.214C46.9356 203.465 46.7567 203.687 46.5369 203.863C46.317 204.04 46.0615 204.167 45.7875 204.237C45.5136 204.306 45.2278 204.316 44.9495 204.267H44.9495Z" fill="#FF6584"/>
<path d="M47.9438 163.916C50.7042 165.79 54.3286 167.716 57.1479 165.721C58.0297 165.055 58.6704 164.123 58.9739 163.066C59.2774 162.008 59.2275 160.882 58.8316 159.855C57.4816 156.026 53.7727 154.34 50.2259 153.048C45.6152 151.368 40.5948 150.032 35.8349 151.235C31.0751 152.438 26.8685 157.009 27.7277 161.806C28.4187 165.663 32.0873 168.873 31.5665 172.756C31.0423 176.665 26.6106 178.722 22.698 179.421C18.7855 180.119 14.4072 180.344 11.5955 183.131C8.0085 186.687 8.90422 193.043 12.2794 196.797C15.6546 200.551 20.7479 202.253 25.6833 203.41C32.2225 204.943 39.2951 205.748 45.5056 203.204C51.7162 200.66 56.5491 193.813 54.75 187.392C53.9901 184.679 52.1999 182.387 50.4698 180.156C48.7397 177.924 46.9878 175.59 46.3279 172.853C45.7779 170.571 46.1849 167.922 47.7104 166.211C47.9879 165.911 48.1625 165.532 48.2092 165.128C48.2559 164.724 48.1723 164.315 47.9703 163.961L47.9438 163.916Z" fill="#2F2E41"/>
<path d="M88.8774 322H0.465327C0.341914 322 0.223556 321.951 0.136291 321.865C0.049025 321.778 0 321.661 0 321.538C0 321.416 0.049025 321.299 0.136291 321.212C0.223556 321.126 0.341914 321.077 0.465327 321.077H88.8774C89.0008 321.077 89.1191 321.126 89.2064 321.212C89.2937 321.299 89.3427 321.416 89.3427 321.538C89.3427 321.661 89.2937 321.778 89.2064 321.865C89.1191 321.951 89.0008 322 88.8774 322Z" fill="#CCCCCC"/>
</g>
<defs>
<clipPath id="clip0_5_93">
<rect width="463" height="322" fill="white"/>
</clipPath>
</defs>
</svg>
