<svg width="369" height="285" viewBox="0 0 369 285" fill="none" xmlns="http://www.w3.org/2000/svg">
<g clip-path="url(#clip0_5_195)">
<path d="M293.957 126.125L295.053 116.003C295.442 112.406 297.055 109.134 299.537 106.907C302.018 104.681 305.165 103.682 308.286 104.131C311.406 104.58 314.244 106.44 316.175 109.301C318.106 112.162 318.972 115.79 318.583 119.387L317.487 129.509C317.435 129.992 317.218 130.432 316.885 130.731C316.551 131.03 316.129 131.164 315.71 131.104L295.341 128.174C294.922 128.114 294.541 127.864 294.281 127.479C294.022 127.095 293.906 126.608 293.957 126.125Z" fill="#2F2E41"/>
<path d="M303.714 129.145C308.515 129.145 312.407 124.658 312.407 119.123C312.407 113.589 308.515 109.102 303.714 109.102C298.914 109.102 295.022 113.589 295.022 119.123C295.022 124.658 298.914 129.145 303.714 129.145Z" fill="#FFB8B8"/>
<path d="M292.182 116.412C292.492 113.568 293.769 110.982 295.731 109.221C297.694 107.461 300.182 106.67 302.65 107.021L304.406 107.274C306.873 107.632 309.116 109.104 310.643 111.366C312.17 113.629 312.856 116.497 312.551 119.342L312.529 119.545L308.818 119.011L307.995 114.743L307.299 118.792L305.382 118.516L304.966 116.363L304.615 118.406L292.16 116.615L292.182 116.412Z" fill="#2F2E41"/>
<path d="M261.2 154.872C261.465 155.474 261.842 156 262.304 156.416C262.765 156.831 263.3 157.125 263.87 157.276C264.441 157.427 265.033 157.432 265.605 157.291C266.178 157.15 266.717 156.866 267.183 156.459L275.079 161.791L279.059 157.05L267.818 149.7C267.173 148.841 266.277 148.285 265.3 148.137C264.322 147.989 263.332 148.259 262.516 148.897C261.7 149.535 261.116 150.495 260.873 151.596C260.631 152.697 260.747 153.863 261.2 154.872Z" fill="#FFB8B8"/>
<path d="M287.076 164.453C281.252 164.453 271.004 161.448 270.437 161.28L270.258 161.227L271.871 151.812L287.523 155.377L296.027 141.571L305.789 140.427L305.517 140.84C305.39 141.033 292.805 160.133 290.847 163.337C290.353 164.145 288.941 164.453 287.076 164.453Z" fill="#3F3D56"/>
<path d="M288.637 199.789L288.404 199.66C288.355 199.633 283.407 196.858 280.844 191.442C278.293 186.051 290.233 163.182 291.068 161.595L291.081 154.332L295.376 140.963L300.853 137.394L296.15 150.045L288.637 199.789Z" fill="#3F3D56"/>
<path d="M283.15 277.847L277.915 277.847L275.424 254.566L283.15 254.567L283.15 277.847Z" fill="#FFB8B8"/>
<path d="M284.485 283.697L267.604 283.697V283.45C267.604 281.442 268.297 279.515 269.529 278.094C270.761 276.674 272.432 275.876 274.175 275.876H274.175L284.485 275.876L284.485 283.697Z" fill="#2F2E41"/>
<path d="M339.381 272.558L334.406 274.437L325.752 253.208L333.094 250.435L339.381 272.558Z" fill="#FFB8B8"/>
<path d="M342.23 277.638L326.189 283.697L326.122 283.463C325.58 281.554 325.717 279.475 326.505 277.683C327.292 275.891 328.664 274.532 330.32 273.907L330.321 273.906L340.118 270.206L342.23 277.638Z" fill="#2F2E41"/>
<path d="M329.245 268.751L314.321 240.027L301.723 209.339L290.386 236.447L285.882 271.556L270.088 271.81L270.151 271.525L294.32 160.804L313.25 164.064L312.388 178.469L312.901 179.311C317.177 186.314 321.599 193.555 319.063 201.361L326.252 225.97L342.164 266.946L329.245 268.751Z" fill="#2F2E41"/>
<path d="M295.185 184.8C292.442 184.8 289.313 181.189 290.936 175.025L290.831 174.937L294.731 155.074C291.328 149.463 295.814 144.832 296.235 144.419L298.377 139.974L307.826 133.065L312.608 178.865L312.537 178.943C309.084 182.752 297.486 184.8 295.185 184.8Z" fill="#4FD1C5"/>
<path d="M314.538 195.135C314.162 195.142 313.788 195.096 313.422 194.999C313.054 194.893 312.459 194.353 311.54 190.902C307.885 177.182 303.569 135.9 306.704 131.861L306.776 131.768L311.924 132.757C312.352 132.393 314.597 130.586 316.669 130.9C317.096 130.962 317.507 131.124 317.877 131.376C318.247 131.629 318.569 131.966 318.821 132.367L318.857 132.42L320.497 159.318L326.505 190.972L326.361 191.047C326.011 191.23 318.509 195.135 314.538 195.135Z" fill="#3F3D56"/>
<path d="M311.076 184.622C311.661 184.599 312.235 184.429 312.756 184.124C313.278 183.818 313.736 183.384 314.096 182.852C314.457 182.321 314.712 181.704 314.844 181.047C314.976 180.389 314.981 179.706 314.859 179.046L322.394 173.063L320.357 166.896L309.818 175.519C308.87 175.828 308.053 176.528 307.523 177.486C306.992 178.444 306.785 179.592 306.94 180.714C307.095 181.836 307.602 182.854 308.364 183.574C309.126 184.294 310.091 184.667 311.076 184.622Z" fill="#FFB8B8"/>
<path d="M319.908 177.857L313.195 172.182L322.631 157.349L315.39 142.618L318.63 131.938L318.839 132.398C318.936 132.612 328.606 153.85 330.293 157.253C332.048 160.793 320.517 177.004 320.025 177.692L319.908 177.857Z" fill="#3F3D56"/>
<path d="M168.921 244.62L163.208 241.847L159.289 208.83H107.102L102.854 241.712L97.7428 244.658C97.4982 244.799 97.3021 245.031 97.1863 245.317C97.0704 245.602 97.0415 245.925 97.1043 246.231C97.1672 246.538 97.318 246.811 97.5324 247.007C97.7468 247.203 98.0122 247.309 98.2856 247.309H168.45C168.73 247.309 169.002 247.197 169.219 246.993C169.436 246.788 169.584 246.503 169.64 246.187C169.695 245.87 169.654 245.541 169.523 245.256C169.392 244.97 169.179 244.745 168.921 244.62Z" fill="#E6E6E6"/>
<path d="M261.662 213.223H5.30159C3.95654 213.219 2.66761 212.601 1.71758 211.503C0.767545 210.405 0.233999 208.918 0.23399 207.367V165.69H266.73V207.367C266.73 208.918 266.196 210.405 265.246 211.503C264.296 212.601 263.007 213.219 261.662 213.223Z" fill="#CCCCCC"/>
<path d="M266.998 185.388H0V7.0587C0.00187551 5.18724 0.647561 3.39305 1.79541 2.06975C2.94325 0.746444 4.49952 0.00209885 6.12279 0H260.875C262.498 0.00209403 264.054 0.746439 265.202 2.06974C266.35 3.39304 266.996 5.18723 266.998 7.0587V185.388Z" fill="#3F3D56"/>
<path d="M251.051 172.445H15.9467C14.6953 172.443 13.4955 171.869 12.6106 170.849C11.7257 169.829 11.2279 168.446 11.2265 167.003V18.3849C11.2279 16.9421 11.7256 15.5588 12.6105 14.5386C13.4955 13.5184 14.6953 12.9445 15.9467 12.9428H251.051C252.303 12.9445 253.502 13.5184 254.387 14.5386C255.272 15.5588 255.77 16.9421 255.771 18.3849V167.003C255.77 168.446 255.272 169.829 254.387 170.849C253.502 171.869 252.303 172.443 251.051 172.445Z" fill="white"/>
<path d="M199.434 247.653H67.3256C67.1903 247.657 67.0578 247.608 66.9488 247.516C66.8399 247.423 66.7605 247.292 66.7231 247.142C66.6998 247.04 66.697 246.933 66.7151 246.829C66.7333 246.726 66.7717 246.629 66.8276 246.545C66.8835 246.461 66.9552 246.393 67.0374 246.347C67.1195 246.3 67.2099 246.276 67.3014 246.276H199.385C199.528 246.27 199.668 246.32 199.783 246.418C199.898 246.516 199.981 246.655 200.018 246.814C200.037 246.915 200.037 247.02 200.016 247.12C199.996 247.221 199.956 247.315 199.9 247.395C199.844 247.476 199.773 247.541 199.693 247.586C199.612 247.63 199.524 247.653 199.434 247.653Z" fill="#CCCCCC"/>
<path d="M248.541 36.9698H191.776V86.9674H248.541V36.9698Z" fill="#F2F2F2"/>
<path d="M245.721 39.4542H194.597V84.483H245.721V39.4542Z" fill="white"/>
<path d="M221.057 72.8543C221.063 72.8544 221.07 72.8542 221.077 72.8538C224.537 72.6451 227.799 70.9246 230.199 68.0422C232.598 65.1598 233.956 61.3319 233.994 57.3369C234.033 53.3419 232.751 49.4799 230.408 46.5362C228.065 43.5925 224.837 41.7881 221.382 41.49C221.339 41.4861 221.296 41.4925 221.256 41.5087C221.215 41.5248 221.178 41.5505 221.146 41.584C221.115 41.617 221.09 41.6571 221.073 41.7018C221.055 41.7465 221.046 41.7948 221.046 41.8438L220.748 72.4914C220.747 72.5867 220.779 72.6784 220.837 72.7464C220.895 72.8145 220.974 72.8533 221.057 72.8543Z" fill="#3F3D56"/>
<path d="M210.367 46.5578C210.473 46.5593 210.574 46.6092 210.648 46.6966L219.8 57.4865C219.837 57.5296 219.866 57.5808 219.885 57.637C219.905 57.6931 219.915 57.7532 219.914 57.8137L219.771 72.4788C219.771 72.5417 219.759 72.6038 219.737 72.6613C219.715 72.7188 219.682 72.7703 219.642 72.8127C219.601 72.8556 219.554 72.8885 219.502 72.9092C219.45 72.93 219.395 72.9383 219.34 72.9336C216.796 72.714 214.355 71.6808 212.291 69.9499C210.228 68.219 208.625 65.8591 207.661 63.1353C206.697 60.4116 206.411 57.4319 206.835 54.5311C207.259 51.6303 208.377 48.9233 210.062 46.7144C210.098 46.6668 210.143 46.6283 210.193 46.6014C210.243 46.5745 210.297 46.5597 210.352 46.5579C210.357 46.5578 210.362 46.5578 210.367 46.5578Z" fill="#E6E6E6"/>
<path d="M219.672 41.3648C219.775 41.3662 219.872 41.4123 219.946 41.4938C219.986 41.5372 220.017 41.5896 220.038 41.6477C220.059 41.7058 220.07 41.7683 220.069 41.8313L219.941 55.063C219.94 55.1541 219.915 55.2429 219.871 55.318C219.826 55.3932 219.763 55.4515 219.69 55.4854C219.616 55.5193 219.536 55.5274 219.459 55.5086C219.381 55.4899 219.31 55.4451 219.255 55.38L211.269 45.9644C211.232 45.9196 211.202 45.8664 211.182 45.808C211.163 45.7497 211.154 45.6873 211.156 45.6247C211.158 45.5622 211.171 45.5008 211.194 45.4442C211.217 45.3876 211.25 45.3371 211.291 45.2957C213.614 42.9388 216.558 41.554 219.648 41.3653C219.656 41.3649 219.664 41.3647 219.672 41.3648Z" fill="#4FD1C5"/>
<path d="M215.558 79.2096C215.553 79.7678 215.404 80.3117 215.131 80.7723C214.857 81.233 214.471 81.5898 214.022 81.7976C213.573 82.0054 213.08 82.055 212.606 81.9399C212.132 81.8249 211.699 81.5504 211.36 81.1513C211.022 80.7522 210.793 80.2463 210.704 79.6976C210.615 79.1489 210.669 78.582 210.859 78.0687C211.05 77.5554 211.368 77.1187 211.773 76.8138C212.179 76.5088 212.654 76.3494 213.138 76.3557C213.787 76.3649 214.406 76.6706 214.86 77.2056C215.314 77.7407 215.565 78.4614 215.558 79.2096Z" fill="#4FD1C5"/>
<path d="M222.553 79.3001C222.547 79.8583 222.398 80.4021 222.125 80.8627C221.851 81.3234 221.466 81.6802 221.016 81.888C220.567 82.0958 220.074 82.1454 219.6 82.0303C219.126 81.9153 218.693 81.6409 218.354 81.2417C218.016 80.8426 217.788 80.3367 217.698 79.788C217.609 79.2393 217.663 78.6724 217.854 78.1591C218.044 77.6458 218.362 77.2091 218.768 76.9042C219.173 76.5993 219.648 76.4398 220.132 76.4461C220.781 76.4553 221.401 76.761 221.854 77.296C222.308 77.8311 222.559 78.5518 222.553 79.3001Z" fill="#3F3D56"/>
<path d="M229.547 79.3904C229.542 79.9486 229.393 80.4924 229.119 80.9531C228.846 81.4137 228.46 81.7705 228.011 81.9784C227.561 82.1862 227.068 82.2357 226.595 82.1207C226.121 82.0057 225.687 81.7312 225.349 81.3321C225.01 80.933 224.782 80.4271 224.693 79.8784C224.604 79.3297 224.658 78.7628 224.848 78.2495C225.038 77.7362 225.356 77.2995 225.762 76.9946C226.167 76.6896 226.642 76.5302 227.127 76.5365C227.776 76.5457 228.395 76.8514 228.849 77.3864C229.302 77.9215 229.554 78.6422 229.547 79.3904Z" fill="#E6E6E6"/>
<path d="M247.944 94.836H191.179V144.834H247.944V94.836Z" fill="#F2F2F2"/>
<path d="M245.123 97.3204H193.999V142.349H245.123V97.3204Z" fill="white"/>
<path d="M202.673 112.12C203.846 112.12 204.796 111.024 204.796 109.673C204.796 108.321 203.846 107.225 202.673 107.225C201.501 107.225 200.551 108.321 200.551 109.673C200.551 111.024 201.501 112.12 202.673 112.12Z" fill="#3F3D56"/>
<path d="M236.779 107.768C236.969 107.768 237.156 107.811 237.331 107.894C237.506 107.977 237.665 108.099 237.799 108.253C237.933 108.408 238.039 108.591 238.112 108.792C238.184 108.994 238.221 109.21 238.221 109.428C238.221 109.646 238.184 109.862 238.112 110.064C238.039 110.265 237.933 110.448 237.799 110.603C237.665 110.757 237.506 110.879 237.331 110.962C237.156 111.045 236.969 111.088 236.779 111.088H214.454C214.073 111.088 213.706 110.913 213.436 110.602C213.166 110.29 213.015 109.868 213.015 109.428C213.015 108.988 213.166 108.566 213.436 108.254C213.706 107.943 214.073 107.768 214.454 107.768H236.779ZM236.779 107.362H214.454C214.219 107.361 213.985 107.415 213.768 107.518C213.55 107.622 213.352 107.774 213.185 107.966C213.019 108.158 212.886 108.386 212.796 108.637C212.706 108.887 212.66 109.156 212.66 109.428C212.66 109.7 212.706 109.968 212.796 110.219C212.886 110.47 213.019 110.698 213.185 110.89C213.352 111.082 213.55 111.234 213.768 111.338C213.985 111.441 214.219 111.495 214.454 111.494H236.779C237.015 111.495 237.248 111.441 237.466 111.338C237.684 111.234 237.882 111.082 238.048 110.89C238.215 110.698 238.347 110.47 238.438 110.219C238.528 109.968 238.574 109.7 238.574 109.428C238.574 109.156 238.528 108.887 238.438 108.637C238.347 108.386 238.215 108.158 238.048 107.966C237.882 107.774 237.684 107.622 237.466 107.518C237.248 107.415 237.015 107.361 236.779 107.362Z" fill="#3F3D56"/>
<path d="M227.97 111.494H211.164C210.689 111.494 210.233 111.276 209.897 110.889C209.561 110.501 209.372 109.976 209.372 109.428C209.372 108.88 209.561 108.354 209.897 107.967C210.233 107.579 210.689 107.362 211.164 107.362H227.97C228.446 107.362 228.901 107.579 229.238 107.967C229.574 108.354 229.762 108.88 229.762 109.428C229.762 109.976 229.574 110.501 229.238 110.889C228.901 111.276 228.446 111.494 227.97 111.494Z" fill="#4FD1C5"/>
<path d="M202.673 122.282C203.846 122.282 204.796 121.186 204.796 119.835C204.796 118.483 203.846 117.388 202.673 117.388C201.501 117.388 200.551 118.483 200.551 119.835C200.551 121.186 201.501 122.282 202.673 122.282Z" fill="#3F3D56"/>
<path d="M236.779 117.93C236.969 117.93 237.156 117.973 237.331 118.056C237.506 118.139 237.665 118.261 237.799 118.416C237.933 118.57 238.039 118.753 238.112 118.954C238.184 119.156 238.221 119.372 238.221 119.59C238.221 119.808 238.184 120.024 238.112 120.226C238.039 120.427 237.933 120.61 237.799 120.765C237.665 120.919 237.506 121.041 237.331 121.124C237.156 121.207 236.969 121.25 236.779 121.25H214.454C214.073 121.25 213.706 121.075 213.436 120.764C213.166 120.452 213.015 120.03 213.015 119.59C213.015 119.15 213.166 118.728 213.436 118.417C213.706 118.105 214.073 117.93 214.454 117.93H236.779ZM236.779 117.524H214.454C213.979 117.524 213.523 117.742 213.187 118.129C212.851 118.517 212.662 119.042 212.662 119.59C212.662 120.138 212.851 120.664 213.187 121.051C213.523 121.439 213.979 121.656 214.454 121.656H236.779C237.255 121.656 237.711 121.439 238.047 121.051C238.383 120.664 238.572 120.138 238.572 119.59C238.572 119.042 238.383 118.517 238.047 118.129C237.711 117.742 237.255 117.524 236.779 117.524Z" fill="#3F3D56"/>
<path d="M234.317 121.656H211.164C210.689 121.656 210.233 121.439 209.897 121.051C209.561 120.664 209.372 120.138 209.372 119.59C209.372 119.042 209.561 118.517 209.897 118.129C210.233 117.742 210.689 117.524 211.164 117.524H234.317C234.792 117.524 235.248 117.742 235.584 118.129C235.92 118.517 236.109 119.042 236.109 119.59C236.109 120.138 235.92 120.664 235.584 121.051C235.248 121.439 234.792 121.656 234.317 121.656Z" fill="#4FD1C5"/>
<path d="M202.673 132.444C203.846 132.444 204.796 131.348 204.796 129.997C204.796 128.645 203.846 127.55 202.673 127.55C201.501 127.55 200.551 128.645 200.551 129.997C200.551 131.348 201.501 132.444 202.673 132.444Z" fill="#3F3D56"/>
<path d="M236.779 128.093C236.969 128.092 237.156 128.135 237.331 128.218C237.506 128.301 237.665 128.424 237.799 128.578C237.933 128.732 238.039 128.915 238.112 129.116C238.184 129.318 238.221 129.534 238.221 129.752C238.221 129.97 238.184 130.186 238.112 130.388C238.039 130.589 237.933 130.773 237.799 130.927C237.665 131.081 237.506 131.203 237.331 131.286C237.156 131.37 236.969 131.412 236.779 131.412H214.454C214.073 131.412 213.706 131.237 213.436 130.926C213.166 130.615 213.015 130.192 213.015 129.752C213.015 129.312 213.166 128.89 213.436 128.579C213.706 128.267 214.073 128.093 214.454 128.093H236.779ZM236.779 127.686H214.454C213.979 127.686 213.523 127.904 213.187 128.291C212.851 128.679 212.662 129.204 212.662 129.752C212.662 130.3 212.851 130.826 213.187 131.213C213.523 131.601 213.979 131.818 214.454 131.818H236.779C237.255 131.818 237.711 131.601 238.047 131.213C238.383 130.826 238.572 130.3 238.572 129.752C238.572 129.204 238.383 128.679 238.047 128.291C237.711 127.904 237.255 127.686 236.779 127.686Z" fill="#3F3D56"/>
<path d="M220.566 131.818H211.164C210.929 131.819 210.695 131.766 210.478 131.662C210.26 131.558 210.062 131.406 209.895 131.214C209.729 131.022 209.596 130.794 209.506 130.544C209.416 130.293 209.369 130.024 209.369 129.752C209.369 129.481 209.416 129.212 209.506 128.961C209.596 128.71 209.729 128.482 209.895 128.29C210.062 128.098 210.26 127.946 210.478 127.842C210.695 127.739 210.929 127.686 211.164 127.686H220.566C221.041 127.687 221.496 127.905 221.832 128.292C222.167 128.68 222.356 129.205 222.356 129.752C222.356 130.3 222.167 130.825 221.832 131.212C221.496 131.599 221.041 131.818 220.566 131.818Z" fill="#4FD1C5"/>
<path d="M178.631 45.8156H20.0399V139.52H178.631V45.8156Z" fill="#F2F2F2"/>
<path d="M173.344 50.4717H25.3262V134.864H173.344V50.4717Z" fill="white"/>
<path d="M154.987 121.989H47.0846C46.9951 121.989 46.9092 121.948 46.8459 121.875C46.7825 121.802 46.747 121.703 46.7469 121.6V61.975C46.7469 61.8718 46.7825 61.7727 46.8459 61.6997C46.9092 61.6267 46.9951 61.5857 47.0846 61.5857C47.1742 61.5857 47.2601 61.6267 47.3234 61.6997C47.3867 61.7727 47.4223 61.8718 47.4223 61.975V121.211H154.987C155.077 121.211 155.163 121.252 155.226 121.325C155.289 121.398 155.325 121.497 155.325 121.6C155.325 121.703 155.289 121.802 155.226 121.875C155.163 121.948 155.077 121.989 154.987 121.989Z" fill="#3F3D56"/>
<path d="M70.1387 117.707H60.3245C60.0588 117.707 59.804 117.585 59.6161 117.368C59.4282 117.151 59.3224 116.858 59.3221 116.551V100.954C59.3224 100.648 59.4282 100.354 59.6161 100.137C59.804 99.9206 60.0588 99.7987 60.3245 99.7984H70.1387C70.4044 99.7987 70.6592 99.9206 70.8471 100.137C71.0351 100.354 71.1408 100.648 71.1411 100.954V116.551C71.1408 116.858 71.0351 117.151 70.8471 117.368C70.6592 117.585 70.4044 117.707 70.1387 117.707Z" fill="#4FD1C5"/>
<path d="M88.036 117.707H78.2219C77.9561 117.707 77.7013 117.585 77.5134 117.368C77.3255 117.151 77.2198 116.858 77.2194 116.551V86.16C77.2198 85.8536 77.3255 85.5599 77.5134 85.3432C77.7013 85.1266 77.9561 85.0047 78.2219 85.0044H88.036C88.3018 85.0047 88.5565 85.1266 88.7445 85.3432C88.9324 85.5599 89.0381 85.8536 89.0384 86.16V116.551C89.0381 116.858 88.9324 117.151 88.7445 117.368C88.5565 117.585 88.3018 117.707 88.036 117.707Z" fill="#4FD1C5"/>
<path d="M105.933 117.707H96.1192C95.8534 117.707 95.5986 117.585 95.4107 117.368C95.2228 117.151 95.1171 116.858 95.1168 116.551V100.954C95.1171 100.648 95.2228 100.354 95.4107 100.137C95.5986 99.9206 95.8534 99.7987 96.1192 99.7984H105.933C106.199 99.7987 106.454 99.9206 106.642 100.137C106.83 100.354 106.935 100.648 106.936 100.954V116.551C106.935 116.858 106.83 117.151 106.642 117.368C106.454 117.585 106.199 117.707 105.933 117.707Z" fill="#4FD1C5"/>
<path d="M123.831 117.707H114.017C113.757 117.713 113.505 117.601 113.318 117.394C113.13 117.187 113.021 116.903 113.014 116.604V80.2679C113.021 79.9685 113.13 79.6843 113.318 79.4775C113.505 79.2707 113.757 79.1582 114.017 79.1646H123.831C124.09 79.1582 124.342 79.2707 124.53 79.4775C124.717 79.6843 124.827 79.9685 124.833 80.2679V116.604C124.827 116.903 124.717 117.187 124.53 117.394C124.342 117.601 124.09 117.713 123.831 117.707Z" fill="#4FD1C5"/>
<path d="M141.728 117.707H131.914C131.648 117.707 131.393 117.585 131.205 117.368C131.017 117.151 130.912 116.858 130.911 116.551V69.8087C130.912 69.5023 131.017 69.2085 131.205 68.9919C131.393 68.7753 131.648 68.6534 131.914 68.6531H141.728C141.994 68.6534 142.249 68.7753 142.436 68.9919C142.624 69.2085 142.73 69.5023 142.73 69.8087V116.551C142.73 116.858 142.624 117.151 142.436 117.368C142.249 117.585 141.994 117.707 141.728 117.707Z" fill="#4FD1C5"/>
<path d="M65.2316 95.1266C66.3506 95.1266 67.2577 94.0808 67.2577 92.7907C67.2577 91.5006 66.3506 90.4548 65.2316 90.4548C64.1126 90.4548 63.2055 91.5006 63.2055 92.7907C63.2055 94.0808 64.1126 95.1266 65.2316 95.1266Z" fill="#3F3D56"/>
<path d="M83.1289 79.9433C84.2479 79.9433 85.1551 78.8975 85.1551 77.6074C85.1551 76.3173 84.2479 75.2715 83.1289 75.2715C82.0099 75.2715 81.1028 76.3173 81.1028 77.6074C81.1028 78.8975 82.0099 79.9433 83.1289 79.9433Z" fill="#3F3D56"/>
<path d="M101.026 95.1266C102.145 95.1266 103.052 94.0808 103.052 92.7907C103.052 91.5006 102.145 90.4548 101.026 90.4548C99.9073 90.4548 99.0002 91.5006 99.0002 92.7907C99.0002 94.0808 99.9073 95.1266 101.026 95.1266Z" fill="#3F3D56"/>
<path d="M118.924 72.5462C120.043 72.5462 120.95 71.5004 120.95 70.2103C120.95 68.9203 120.043 67.8745 118.924 67.8745C117.805 67.8745 116.897 68.9203 116.897 70.2103C116.897 71.5004 117.805 72.5462 118.924 72.5462Z" fill="#3F3D56"/>
<path d="M136.821 63.9813C137.94 63.9813 138.847 62.9355 138.847 61.6454C138.847 60.3553 137.94 59.3095 136.821 59.3095C135.702 59.3095 134.795 60.3553 134.795 61.6454C134.795 62.9355 135.702 63.9813 136.821 63.9813Z" fill="#3F3D56"/>
<path d="M101.069 93.3139L83.1291 77.8222L65.434 93.1022L65.0292 92.4794L83.1291 76.8491L100.983 92.2672L118.726 69.8825L118.797 69.8491L136.695 61.5357L136.947 62.2579L119.121 70.5383L101.069 93.3139Z" fill="#3F3D56"/>
<path d="M368.608 285H219.45C219.346 285 219.247 284.952 219.173 284.868C219.1 284.783 219.058 284.668 219.058 284.549C219.058 284.429 219.1 284.314 219.173 284.229C219.247 284.145 219.346 284.097 219.45 284.097H368.608C368.712 284.097 368.812 284.145 368.885 284.229C368.959 284.314 369 284.429 369 284.549C369 284.668 368.959 284.783 368.885 284.868C368.812 284.952 368.712 285 368.608 285Z" fill="#CCCCCC"/>
</g>
<defs>
<clipPath id="clip0_5_195">
<rect width="369" height="285" fill="white"/>
</clipPath>
</defs>
</svg>
